<?xml version="1.0" standalone="no"?>
<!DOCTYPE svg PUBLIC "-//W3C//DTD SVG 20010904//EN"
 "http://www.w3.org/TR/2001/REC-SVG-20010904/DTD/svg10.dtd">
<svg version="1.0" xmlns="http://www.w3.org/2000/svg"
 width="384.000000pt" height="370.000000pt" viewBox="0 0 384.000000 370.000000"
 preserveAspectRatio="xMidYMid meet">

<g transform="translate(0.000000,370.000000) scale(0.100000,-0.100000)"
fill="#000000" stroke="none">
<path d="M1780 3405 c0 -8 5 -15 10 -15 6 0 10 7 10 15 0 8 -4 15 -10 15 -5 0
-10 -7 -10 -15z"/>
<path d="M1868 3404 c-5 -4 -8 -16 -8 -26 0 -10 -6 -18 -12 -18 -9 0 -10 -2
-2 -8 7 -4 14 -33 17 -65 3 -31 9 -62 12 -67 8 -13 45 -13 45 0 0 6 -7 10 -15
10 -12 0 -15 13 -15 60 0 40 4 60 12 60 7 0 5 5 -4 13 -9 6 -18 20 -20 30 -1
11 -6 15 -10 11z"/>
<path d="M1940 3361 c0 -5 12 -42 26 -80 28 -75 26 -100 -6 -108 -26 -7 -26
-23 0 -23 25 0 41 26 79 125 35 91 34 85 22 85 -5 0 -19 -25 -32 -55 -12 -30
-26 -55 -30 -55 -4 0 -13 26 -21 57 -7 31 -19 58 -26 61 -6 2 -12 -1 -12 -7z"/>
<path d="M1788 3355 c-6 -6 -3 -53 8 -122 9 -62 21 -33 16 40 -4 69 -12 94
-24 82z"/>
<path d="M2395 3330 c-3 -11 -13 -20 -21 -20 -16 0 -19 -17 -4 -22 7 -2 4 -26
-8 -65 -11 -34 -17 -65 -14 -68 9 -9 22 -6 22 6 0 6 7 36 16 66 11 38 20 53
30 49 7 -3 16 -1 19 4 4 6 -1 10 -10 10 -25 0 -14 34 13 38 32 5 27 22 -7 22
-21 0 -32 -6 -36 -20z"/>
<path d="M1636 3321 c-30 -33 6 -71 70 -71 17 0 24 -5 24 -20 0 -28 -45 -38
-69 -16 -11 10 -22 13 -25 8 -10 -17 22 -33 60 -30 45 4 71 34 51 61 -6 10
-32 21 -56 25 -25 4 -46 13 -49 20 -5 16 39 32 60 21 28 -15 43 -11 28 6 -17
21 -73 19 -94 -4z"/>
<path d="M2206 3316 c-54 -53 -29 -136 41 -136 45 0 73 30 73 78 0 69 -69 104
-114 58z m76 -13 c21 -19 23 -60 4 -85 -15 -21 -56 -24 -74 -6 -27 27 -1 108
35 108 9 0 25 -7 35 -17z"/>
<path d="M1555 3309 c-4 -6 -13 -8 -21 -5 -9 3 -14 -1 -14 -11 0 -29 32 -133
41 -133 12 0 11 12 -3 67 -10 43 -10 48 10 64 12 9 22 20 22 23 0 10 -29 6
-35 -5z"/>
<path d="M2560 3291 c0 -5 13 -14 30 -19 l30 -11 -36 -78 c-49 -106 -48 -103
-32 -103 7 0 30 36 51 81 38 84 39 85 90 64 10 -4 17 -3 17 4 0 6 -30 24 -66
41 -71 32 -84 35 -84 21z"/>
<path d="M1377 3252 c-27 -30 -17 -101 17 -124 26 -17 75 -8 95 18 11 15 18
30 15 35 -7 13 -24 1 -24 -17 0 -8 -11 -20 -25 -26 -22 -10 -29 -9 -48 10
l-21 22 52 22 c56 24 62 35 34 61 -25 22 -75 21 -95 -1z m73 -10 l23 -19 -42
-16 c-51 -21 -51 -21 -51 0 0 17 27 53 40 53 4 0 18 -8 30 -18z"/>
<path d="M1297 3224 c-3 -6 -2 -36 2 -67 9 -69 2 -72 -55 -16 -23 22 -44 36
-48 31 -7 -12 102 -114 118 -109 7 2 10 25 8 61 -5 67 -16 114 -25 100z"/>
<path d="M1110 3180 c0 -5 5 -10 10 -10 6 0 10 5 10 10 0 6 -4 10 -10 10 -5 0
-10 -4 -10 -10z"/>
<path d="M2669 3131 c-36 -36 -39 -81 -7 -111 23 -21 88 -26 78 -5 -3 5 -15 8
-28 6 -30 -3 -52 15 -52 45 0 31 13 30 68 -2 36 -21 46 -24 53 -13 16 25 9 60
-16 84 -32 33 -60 31 -96 -4z m83 -8 c20 -17 23 -38 9 -48 -5 -3 -26 5 -46 17
-35 20 -36 22 -19 35 23 17 34 16 56 -4z"/>
<path d="M1140 3135 c0 -10 62 -115 72 -121 22 -14 16 7 -18 65 -31 52 -54 76
-54 56z"/>
<path d="M1875 3093 c-272 -33 -498 -116 -680 -251 -95 -70 -242 -220 -308
-316 -152 -218 -227 -465 -227 -745 0 -225 40 -397 135 -586 234 -463 707
-743 1217 -722 166 7 299 35 445 93 245 97 453 265 597 481 162 245 233 492
223 783 -6 168 -41 326 -104 470 -172 393 -524 681 -933 764 -151 30 -275 40
-365 29z m290 -68 c110 -17 132 -23 250 -67 181 -68 316 -156 451 -293 435
-445 483 -1133 112 -1637 -60 -82 -218 -234 -298 -287 -135 -90 -289 -156
-445 -191 -143 -33 -376 -33 -526 -2 -188 40 -344 112 -504 232 -221 167 -376
398 -457 680 -32 113 -33 119 -33 315 0 218 7 264 65 428 102 289 317 540 590
688 126 69 313 128 450 142 90 9 254 5 345 -8z"/>
<path d="M1740 2867 l0 -83 -64 -17 c-35 -9 -67 -17 -69 -17 -3 0 -24 30 -47
68 -24 37 -44 69 -46 71 -3 3 -117 -68 -285 -177 l-37 -24 45 -64 c50 -71 51
-65 -20 -143 l-38 -42 -52 32 c-29 18 -60 39 -70 47 -9 9 -19 13 -21 11 -2 -2
-34 -56 -71 -119 -37 -63 -81 -137 -98 -163 -25 -40 -28 -50 -16 -58 8 -5 17
-9 21 -9 4 0 32 -11 62 -24 l54 -24 -20 -81 -20 -81 -84 0 -84 0 0 -190 0
-189 87 -3 86 -3 18 -50 c10 -27 18 -57 18 -65 0 -8 -30 -32 -69 -54 -39 -22
-70 -43 -70 -48 0 -5 8 -21 19 -36 27 -39 102 -158 142 -224 19 -32 37 -58 40
-58 3 0 33 18 66 39 l61 39 56 -50 56 -50 -35 -65 c-19 -36 -35 -68 -35 -72 0
-5 21 -22 48 -38 26 -17 95 -62 154 -101 l106 -70 36 57 c48 79 53 82 106 70
100 -21 90 -9 90 -104 l0 -85 180 0 180 0 0 79 c0 50 4 83 12 87 6 4 39 13 72
20 69 15 67 16 131 -78 l30 -45 150 99 c83 55 151 103 153 108 2 5 -13 38 -32
73 l-36 63 54 51 c47 45 56 50 72 39 11 -7 40 -25 66 -40 l47 -27 57 88 c31
48 76 118 100 154 24 37 44 71 44 76 0 5 -31 27 -70 49 -38 21 -70 44 -70 49
0 6 9 35 19 65 l19 55 86 3 86 3 0 189 0 189 -82 3 -81 3 -23 75 c-13 41 -20
77 -16 80 4 3 36 19 72 35 36 16 66 30 68 31 3 1 -159 281 -182 316 -11 15
-19 13 -82 -27 -38 -25 -71 -45 -74 -45 -3 0 -27 27 -53 59 l-48 60 41 59 c22
33 40 63 40 68 0 5 -12 16 -28 25 -15 9 -81 51 -147 94 -66 43 -125 79 -130
81 -6 3 -30 -27 -54 -66 -49 -78 -42 -76 -146 -46 l-40 12 -3 82 -3 82 -199 0
-200 0 0 -83z m280 -85 l0 -87 78 -17 c43 -9 107 -28 143 -43 35 -14 71 -29
79 -31 11 -4 28 15 54 61 22 36 42 68 46 70 7 4 120 -63 120 -72 0 -2 -18 -35
-40 -73 -22 -38 -40 -72 -40 -77 0 -4 19 -21 41 -38 44 -32 111 -101 146 -150
l21 -30 77 38 c43 21 78 37 79 35 1 -2 19 -27 39 -56 20 -28 37 -54 37 -57 0
-2 -32 -23 -71 -45 -55 -33 -69 -45 -63 -58 22 -53 55 -172 65 -232 l12 -70
78 0 79 0 0 -70 0 -69 -86 -3 -87 -3 -4 -40 c-3 -34 -46 -185 -68 -237 -5 -12
10 -26 65 -58 39 -24 69 -46 68 -49 -23 -49 -66 -111 -78 -111 -8 0 -44 16
-80 35 l-64 35 -25 -32 c-13 -18 -65 -72 -115 -120 l-91 -87 24 -33 c14 -18
35 -47 48 -65 l24 -32 -63 -40 c-35 -22 -67 -40 -73 -40 -5 0 -29 30 -52 68
l-43 68 -79 -23 c-43 -12 -106 -26 -140 -30 l-60 -7 -3 -91 -3 -91 -70 0 -70
0 -2 60 c-5 121 -6 122 -71 130 -31 4 -92 17 -134 30 l-78 22 -43 -68 c-23
-38 -46 -68 -52 -68 -5 0 -38 17 -72 39 l-63 40 45 62 c25 34 45 65 45 68 0 3
-38 43 -84 88 -46 45 -98 98 -115 117 l-31 35 -71 -40 c-40 -22 -73 -39 -74
-38 -8 9 -75 118 -75 121 0 3 32 24 71 47 54 32 69 46 64 58 -26 64 -57 165
-66 219 l-11 63 -89 0 -89 0 0 70 0 70 84 0 84 0 12 73 c16 98 29 145 51 189
10 20 19 42 19 47 0 6 -32 29 -70 51 -45 26 -68 45 -64 53 7 11 64 98 70 105
1 2 37 -14 78 -36 l76 -39 26 36 c15 20 63 71 107 113 l80 77 -41 66 c-23 36
-42 69 -42 73 0 12 110 83 120 77 4 -3 25 -35 46 -71 27 -44 44 -64 54 -60 8
2 42 16 75 30 33 14 95 33 138 42 l77 17 0 82 c0 45 3 85 7 88 3 4 39 7 80 7
l73 0 0 -88z"/>
<path d="M1800 2540 c-13 -8 -12 -10 3 -10 9 0 17 5 17 10 0 12 -1 12 -20 0z"/>
<path d="M1868 2524 c-4 -3 -4 -12 -2 -19 4 -8 -11 -14 -45 -19 -47 -6 -81
-26 -81 -47 0 -5 9 -9 20 -9 28 0 25 -15 -5 -28 -37 -17 -62 -15 -74 6 -12 19
-14 12 -5 -12 8 -21 62 -21 92 0 25 17 29 44 7 44 -59 0 50 40 115 42 56 1
127 -6 137 -14 23 -18 113 8 113 32 0 14 -31 20 -48 10 -15 -8 -14 -9 6 -10
12 0 22 -5 22 -10 0 -11 -76 -12 -94 -2 -5 3 -35 6 -65 6 -43 1 -56 5 -56 16
0 15 -26 25 -37 14z"/>
<path d="M2420 2460 c34 -11 60 -11 35 0 -11 5 -29 8 -40 8 -16 0 -15 -2 5 -8z"/>
<path d="M1506 2444 c-5 -14 -4 -15 9 -4 17 14 19 20 6 20 -5 0 -12 -7 -15
-16z"/>
<path d="M2225 2450 c-4 -6 -1 -9 6 -8 6 2 14 -3 16 -11 4 -10 -1 -11 -18 -6
-19 6 -22 5 -12 -5 16 -17 43 -5 43 20 0 21 -24 28 -35 10z"/>
<path d="M2302 2425 c-18 -40 -15 -50 22 -70 27 -15 38 -16 49 -7 11 10 16 5
26 -28 6 -22 16 -40 21 -40 11 0 61 -49 76 -76 13 -23 46 -25 51 -4 4 13 3 13
-6 0 -10 -13 -15 -10 -34 15 -12 16 -38 46 -58 65 -35 33 -79 133 -65 147 3 4
24 1 47 -6 22 -7 43 -10 46 -7 3 2 -12 9 -34 15 -72 20 -90 12 -73 -35 15 -39
-1 -50 -39 -28 -34 20 -36 26 -20 56 6 11 9 22 6 24 -2 2 -9 -7 -15 -21z"/>
<path d="M1902 2418 c-7 -7 -12 -20 -12 -29 0 -15 -6 -17 -34 -12 -45 7 -53
-11 -16 -37 33 -23 90 -114 90 -142 0 -31 28 -19 35 14 10 44 48 102 84 129
37 27 30 43 -15 36 -28 -5 -34 -3 -34 12 0 26 -20 41 -55 41 -17 0 -36 -5 -43
-12z"/>
<path d="M1540 2395 c0 -8 -6 -15 -13 -15 -7 0 -18 -9 -25 -20 -7 -11 -20 -20
-29 -20 -14 0 -15 -2 -4 -12 10 -11 16 -9 31 10 10 12 22 22 27 22 4 0 19 12
32 25 23 25 23 25 2 25 -12 0 -21 -6 -21 -15z"/>
<path d="M1740 2346 c0 -3 14 -27 30 -53 66 -103 70 -136 70 -534 l0 -359 35
0 35 0 0 360 c0 335 -1 363 -20 413 -21 57 -72 123 -121 157 -16 12 -29 19
-29 16z"/>
<path d="M2081 2294 c-100 -101 -101 -108 -101 -534 l0 -360 35 0 34 0 3 378
3 377 28 65 c15 36 37 78 48 93 38 52 10 41 -50 -19z"/>
<path d="M1491 2290 c0 -15 -4 -30 -8 -36 -5 -5 -2 -4 5 2 8 6 12 22 9 35 -4
24 -4 24 -6 -1z"/>
<path d="M2500 2296 c0 -2 7 -7 16 -10 8 -3 12 -2 9 4 -6 10 -25 14 -25 6z"/>
<path d="M1357 2235 c-31 -28 -52 -33 -44 -10 4 8 2 17 -3 20 -6 4 -10 -3 -10
-15 0 -11 7 -23 15 -26 22 -9 18 -34 -10 -77 -17 -24 -34 -37 -48 -37 -17 0
-19 -2 -8 -9 9 -6 22 -6 32 0 23 12 59 71 59 97 0 11 10 29 23 39 26 21 42 43
30 43 -4 0 -21 -12 -36 -25z"/>
<path d="M2580 2239 c0 -5 5 -7 10 -4 6 3 10 8 10 11 0 2 -4 4 -10 4 -5 0 -10
-5 -10 -11z"/>
<path d="M1429 2223 c-13 -16 -12 -17 4 -4 9 7 17 15 17 17 0 8 -8 3 -21 -13z"/>
<path d="M2592 2184 c-34 -33 -34 -34 -6 -15 32 21 61 51 50 51 -3 0 -23 -16
-44 -36z"/>
<path d="M1525 2159 c5 -13 10 -104 12 -202 4 -156 6 -179 21 -184 9 -4 34
-17 54 -30 21 -13 40 -23 43 -23 3 0 5 48 5 108 0 107 8 141 29 128 7 -5 11
-53 11 -139 l0 -132 41 -34 40 -33 -3 230 c-3 215 -4 233 -24 258 -32 43 -90
68 -168 73 -69 3 -69 3 -61 -20z"/>
<path d="M2214 2164 c-50 -18 -81 -50 -99 -101 -14 -41 -20 -443 -7 -443 4 0
24 16 45 36 l37 36 0 134 c0 108 3 134 14 134 22 0 26 -23 26 -137 0 -57 3
-103 8 -101 4 2 31 16 59 32 l52 29 4 176 c1 97 7 186 11 199 8 21 6 22 -50
21 -33 0 -77 -7 -100 -15z"/>
<path d="M2620 2105 c0 -28 -12 -32 -30 -10 -7 8 -17 15 -23 15 -6 0 -1 -10
11 -22 18 -18 26 -20 40 -12 19 12 29 54 13 54 -6 0 -11 -11 -11 -25z"/>
<path d="M1420 1925 l0 -135 40 0 40 0 0 104 c0 98 -2 106 -26 135 -48 57 -54
46 -54 -104z"/>
<path d="M2416 2029 c-24 -29 -26 -37 -26 -135 l0 -104 35 0 35 0 0 135 c0 75
-4 135 -9 135 -5 0 -21 -14 -35 -31z"/>
<path d="M1363 1710 c-32 -16 -71 -43 -87 -59 l-28 -29 44 -7 c116 -19 257
-110 288 -185 11 -27 17 -30 56 -30 43 0 43 1 34 26 -17 44 -69 112 -115 151
-51 42 -55 53 -21 53 33 0 134 -103 173 -177 27 -49 35 -56 62 -57 17 -1 31 3
31 7 0 16 -54 115 -96 173 -108 153 -217 196 -341 134z"/>
<path d="M2340 1720 c-59 -27 -143 -118 -202 -216 -60 -102 -61 -106 -20 -108
31 -1 36 3 65 59 41 76 138 175 172 175 14 0 25 -3 25 -7 0 -5 -23 -28 -51
-52 -55 -47 -94 -101 -104 -143 -7 -27 -6 -28 33 -28 33 0 42 4 48 22 11 35
95 118 145 144 26 13 79 32 119 42 l72 19 -43 35 c-93 75 -180 94 -259 58z"/>
<path d="M1226 1570 c-29 -9 -66 -37 -66 -50 0 -4 28 -11 63 -14 86 -10 137
-35 183 -90 21 -26 49 -54 61 -62 21 -13 25 -12 54 14 l31 28 -53 49 c-63 56
-140 107 -188 123 -38 14 -45 14 -85 2z"/>
<path d="M2567 1565 c-47 -18 -84 -43 -165 -113 l-64 -55 31 -31 31 -31 67 67
c76 75 111 93 201 104 66 7 72 16 31 45 -34 25 -88 31 -132 14z"/>
<path d="M1915 1335 c-14 -13 -25 -33 -25 -45 0 -27 43 -70 70 -70 12 0 32 11
45 25 14 13 25 34 25 45 0 27 -43 70 -70 70 -11 0 -32 -11 -45 -25z"/>
<path d="M1620 1331 c-84 -26 -144 -98 -159 -190 l-8 -51 193 0 194 0 0 60 0
60 -120 0 c-66 0 -120 3 -120 8 0 4 8 17 18 29 15 20 27 23 117 25 l100 3 3
33 3 32 -98 -1 c-54 0 -109 -4 -123 -8z"/>
<path d="M2052 1309 l3 -34 100 -3 c87 -2 102 -5 118 -23 9 -12 17 -25 17 -30
0 -5 -54 -9 -120 -9 l-120 0 0 -60 0 -60 191 0 192 0 -6 45 c-8 72 -46 135
-102 170 -45 28 -56 30 -162 34 l-114 3 3 -33z"/>
<path d="M1925 1122 c-11 -20 -31 -49 -43 -64 l-24 -28 26 0 c16 0 29 -7 33
-17 12 -34 25 -44 39 -32 8 6 14 20 14 30 0 15 7 19 32 19 l31 0 -20 23 c-11
12 -31 41 -45 64 l-24 42 -19 -37z"/>
<path d="M1032 3065 c-11 -14 -25 -25 -32 -25 -15 0 -14 -2 34 -72 21 -32 43
-55 48 -52 5 3 -1 20 -12 37 -38 57 -45 77 -33 95 21 34 48 25 84 -28 19 -27
37 -50 42 -50 15 0 6 24 -29 71 -41 56 -71 63 -102 24z"/>
<path d="M2809 3031 c-52 -52 -25 -126 44 -119 39 4 33 21 -7 22 -41 1 -55 28
-34 63 31 52 98 53 98 2 0 -11 5 -19 10 -19 19 0 10 49 -12 64 -34 24 -66 19
-99 -13z"/>
<path d="M887 3033 c-3 -5 19 -37 49 -72 29 -34 54 -69 54 -77 0 -19 -45 -64
-63 -64 -8 0 -41 27 -73 60 -32 33 -61 60 -66 60 -19 0 -4 -25 50 -80 66 -69
93 -75 141 -34 24 20 31 34 31 61 0 29 -10 45 -58 95 -33 34 -62 57 -65 51z"/>
<path d="M2946 2944 c-76 -81 -83 -112 -11 -45 49 46 49 45 76 31 28 -15 24
-36 -16 -83 -35 -41 -43 -57 -26 -57 10 0 91 98 91 109 0 14 -41 51 -57 51
-13 0 -11 6 10 28 30 31 34 42 15 41 -7 0 -44 -34 -82 -75z"/>
<path d="M3089 2837 c-49 -38 -90 -79 -87 -88 2 -6 23 5 47 25 45 38 69 44 89
24 20 -20 14 -37 -30 -78 -56 -51 -42 -63 17 -14 39 32 46 42 43 68 -2 21 -10
34 -25 41 -13 5 -23 15 -23 22 0 16 -10 16 -31 0z"/>
<path d="M668 2806 c-9 -22 -8 -29 6 -45 10 -11 15 -25 10 -32 -5 -9 -2 -10
11 -5 13 4 31 -3 59 -25 23 -18 46 -36 53 -41 6 -5 14 -5 17 1 3 5 -17 26 -45
47 -37 27 -49 42 -46 55 4 15 1 18 -18 13 -27 -7 -42 11 -25 31 7 9 8 15 1 20
-6 3 -16 -5 -23 -19z"/>
<path d="M606 2722 c-3 -6 -1 -14 5 -17 15 -10 25 3 12 16 -7 7 -13 7 -17 1z"/>
<path d="M3151 2674 c-35 -29 -40 -66 -15 -102 20 -28 72 -29 107 -2 34 27 41
53 23 88 -26 50 -68 56 -115 16z m89 -14 c11 -11 20 -25 20 -30 0 -20 -49 -60
-73 -60 -51 0 -64 55 -21 89 33 26 49 26 74 1z"/>
<path d="M650 2683 c0 -5 17 -19 37 -33 93 -63 93 -62 93 -48 -1 7 -25 30 -55
51 -52 36 -75 45 -75 30z"/>
<path d="M620 2635 c-7 -9 -10 -18 -7 -22 4 -3 0 -11 -9 -17 -12 -9 -6 -17 38
-43 63 -38 88 -48 88 -36 0 5 -17 19 -39 31 -54 31 -68 49 -53 72 14 23 -1 35
-18 15z"/>
<path d="M3278 2543 c-79 -42 -105 -63 -78 -63 15 0 180 93 180 102 0 14 -12
9 -102 -39z"/>
<path d="M534 2489 c-16 -32 -12 -79 6 -79 6 0 8 11 4 24 -8 32 12 66 38 66
18 0 20 -4 13 -32 -13 -58 -11 -80 12 -95 19 -13 24 -12 42 6 12 12 21 34 21
51 0 20 5 30 15 30 29 0 14 15 -38 38 -71 30 -93 29 -113 -9z m126 -53 c0 -28
-24 -51 -45 -42 -17 6 -19 24 -5 61 8 22 13 24 30 15 11 -6 20 -21 20 -34z"/>
<path d="M3285 2474 c-16 -8 -33 -21 -37 -27 -13 -20 -9 -61 8 -85 42 -60 169
12 135 77 -28 52 -56 61 -106 35z m87 -40 c11 -24 9 -29 -16 -51 -34 -29 -72
-27 -93 3 -12 18 -11 24 8 47 29 38 84 38 101 1z"/>
<path d="M470 2341 c-5 -11 -10 -29 -10 -41 0 -19 -4 -20 -35 -14 -20 3 -35 2
-35 -3 0 -10 191 -76 198 -68 8 8 -10 25 -26 25 -28 0 -82 38 -82 59 0 35 22
42 76 26 56 -17 74 -19 74 -7 0 10 -98 42 -128 42 -12 0 -26 -9 -32 -19z"/>
<path d="M3360 2323 c-25 -9 -60 -46 -60 -63 0 -9 7 -25 15 -36 20 -27 19 -34
-9 -34 -35 0 -49 23 -41 67 6 33 5 35 -9 24 -20 -17 -20 -60 0 -89 19 -28 52
-28 138 -2 66 21 85 33 66 45 -6 4 -8 15 -5 26 4 12 -2 27 -19 44 -24 24 -45
29 -76 18z m58 -29 c29 -20 28 -50 -2 -69 -48 -32 -116 1 -90 43 10 15 50 41
64 42 3 0 16 -7 28 -16z"/>
<path d="M390 2197 c-54 -27 -64 -117 -15 -139 31 -14 60 3 84 51 11 20 27 44
36 51 15 13 20 11 36 -9 13 -15 17 -31 13 -45 -8 -28 -34 -56 -51 -56 -7 0
-13 -4 -13 -10 0 -18 39 -11 58 11 42 44 33 123 -15 135 -35 9 -50 -1 -80 -55
-29 -52 -54 -65 -71 -34 -13 23 5 71 29 78 10 4 19 13 19 21 0 17 1 17 -30 1z"/>
<path d="M3410 2130 c-73 -45 -85 -47 -112 -23 -25 22 -37 7 -12 -17 14 -14
47 -23 119 -34 55 -7 102 -12 104 -10 11 10 -16 24 -47 25 -20 1 -48 4 -62 8
-23 6 -21 9 33 40 31 18 57 37 57 42 0 15 -12 11 -80 -31z"/>
<path d="M416 1928 c-40 -35 -43 -78 -11 -116 54 -64 155 -26 155 58 0 12 -13
35 -29 51 -36 36 -79 38 -115 7z"/>
<path d="M3385 1915 c-31 -30 -33 -82 -4 -119 16 -21 29 -26 64 -26 35 0 48 5
64 26 47 60 10 144 -64 144 -25 0 -44 -8 -60 -25z"/>
<path d="M433 1713 c-47 -3 -63 -8 -63 -19 0 -14 24 -14 165 1 17 2 36 4 43 4
6 1 12 6 12 11 0 10 -25 10 -157 3z"/>
<path d="M3330 1701 c0 -11 25 -21 50 -21 15 0 17 -6 13 -44 -5 -37 -2 -46 18
-60 13 -9 40 -16 60 -16 46 0 73 28 67 69 -2 17 0 32 6 34 24 9 -6 18 -99 32
-116 18 -115 18 -115 6z m182 -48 c23 -21 23 -36 -2 -58 -43 -39 -137 16 -100
60 17 20 79 19 102 -2z"/>
<path d="M426 1631 c-22 -3 -41 -11 -43 -18 -3 -9 12 -11 60 -6 59 5 66 4 76
-15 16 -31 4 -49 -37 -56 -79 -14 -92 -18 -86 -27 6 -10 81 -3 120 12 27 10
35 41 20 71 -7 13 -11 29 -8 36 4 13 -32 14 -102 3z"/>
<path d="M3370 1515 c-7 -8 -12 -27 -12 -43 0 -15 -4 -32 -9 -38 -7 -8 10 -17
58 -28 75 -19 83 -19 84 -8 0 4 -21 13 -48 21 -57 16 -73 27 -73 51 0 33 25
44 74 31 24 -6 51 -13 60 -17 10 -4 16 -1 16 8 0 9 -19 19 -51 26 -66 16 -84
15 -99 -3z"/>
<path d="M545 1488 c-4 -10 -28 -21 -58 -28 -63 -15 -76 -25 -70 -50 7 -25 19
-26 25 -2 7 25 93 48 114 31 11 -9 14 -8 14 4 0 8 11 18 25 21 14 4 23 11 20
17 -4 5 -16 7 -27 3 -12 -4 -24 -1 -29 7 -6 11 -9 10 -14 -3z"/>
<path d="M472 1370 c-42 -40 -16 -129 35 -118 15 4 13 7 -9 18 -30 14 -38 56
-16 78 20 20 26 14 43 -38 17 -52 33 -61 59 -35 26 27 29 56 9 84 -27 35 -88
41 -121 11z m112 -22 c11 -19 0 -48 -21 -55 -10 -4 -33 46 -33 69 0 16 42 4
54 -14z"/>
<path d="M3314 1334 c-12 -29 -13 -43 -5 -61 6 -13 16 -21 22 -17 8 4 8 9 0
17 -17 17 -13 42 8 61 30 27 40 12 34 -48 -5 -48 -3 -55 16 -65 29 -16 58 1
66 39 4 16 4 34 1 39 -3 5 1 11 9 15 27 10 16 21 -32 34 -104 28 -101 28 -119
-14z m115 -18 c20 -23 10 -70 -15 -74 -26 -4 -33 12 -27 56 6 34 23 41 42 18z"/>
<path d="M570 1219 c-72 -34 -76 -36 -67 -45 3 -3 27 4 52 15 59 26 71 26 86
0 8 -15 14 -18 22 -10 7 7 6 16 -6 28 -8 10 -16 22 -15 26 0 18 -10 16 -72
-14z"/>
<path d="M3210 1241 c0 -10 165 -91 186 -91 33 0 8 18 -80 58 -100 45 -106 47
-106 33z"/>
<path d="M601 1120 c-74 -44 -66 -65 9 -23 55 31 82 26 88 -15 3 -16 -9 -29
-47 -53 -28 -17 -51 -35 -51 -40 0 -14 9 -11 66 22 45 25 54 35 54 58 0 15 -9
36 -19 45 -11 10 -17 24 -14 32 8 23 -18 15 -86 -26z"/>
<path d="M3220 1128 c-23 -38 -24 -50 -8 -66 19 -19 53 -14 78 13 28 30 60 33
60 7 0 -21 -29 -52 -48 -52 -7 0 -12 -5 -12 -11 0 -20 43 -4 63 23 17 23 19
33 11 55 -13 39 -40 40 -86 3 -28 -23 -43 -29 -50 -22 -14 14 16 62 37 62 8 0
15 5 15 10 0 24 -42 8 -60 -22z"/>
<path d="M3105 1061 c-6 -11 7 -21 107 -86 39 -25 70 -39 74 -34 3 6 4 12 3
13 -7 5 -154 102 -166 109 -6 4 -14 3 -18 -2z"/>
<path d="M735 1000 c-6 -9 0 -14 16 -12 15 2 51 -48 46 -62 -9 -24 -30 -19
-62 14 -31 32 -53 38 -73 18 -20 -20 -13 -55 16 -78 15 -12 27 -26 27 -31 0
-17 20 -9 68 26 55 42 59 64 18 106 -31 30 -46 36 -56 19z m9 -89 c18 -20 18
-21 -5 -30 -41 -16 -93 38 -58 60 15 9 37 -1 63 -30z"/>
<path d="M875 900 c-3 -5 -12 -7 -20 -3 -11 3 -13 1 -10 -10 4 -9 -11 -29 -40
-55 -36 -32 -45 -46 -40 -61 8 -26 25 -28 25 -3 0 27 73 95 87 81 8 -8 13 -8
17 0 4 6 2 11 -5 11 -7 0 -2 11 11 25 23 25 23 25 2 25 -11 0 -23 -4 -27 -10z"/>
<path d="M3033 863 c-9 -16 -18 -30 -20 -32 -2 -3 -14 6 -28 19 -14 13 -28 20
-32 16 -9 -9 136 -145 155 -146 21 0 14 12 -29 48 -43 37 -50 75 -17 96 13 8
27 2 67 -32 27 -23 52 -38 55 -33 9 14 -86 91 -111 91 -14 0 -29 -11 -40 -27z"/>
<path d="M950 855 c0 -9 5 -15 11 -13 6 2 11 8 11 13 0 5 -5 11 -11 13 -6 2
-11 -4 -11 -13z"/>
<path d="M860 775 c-30 -30 -51 -58 -47 -62 4 -4 33 18 63 49 31 30 52 58 47
61 -5 3 -34 -18 -63 -48z"/>
<path d="M2917 752 c-10 -10 -17 -30 -17 -45 0 -33 29 -43 69 -23 40 21 61 20
61 -2 0 -26 -20 -42 -52 -42 -15 0 -28 -4 -28 -10 0 -5 15 -10 34 -10 25 0 40
7 55 26 26 33 26 36 2 65 l-19 24 -45 -22 c-32 -15 -48 -18 -55 -11 -17 17 5
48 33 48 13 0 27 5 30 10 11 18 -51 11 -68 -8z"/>
<path d="M905 734 c-49 -53 -23 -124 45 -124 47 0 80 35 80 85 0 65 -78 89
-125 39z m100 -14 c17 -18 17 -21 -2 -52 -13 -22 -28 -34 -47 -36 -55 -7 -74
42 -34 85 26 28 59 30 83 3z"/>
<path d="M2806 731 c-4 -5 -2 -12 3 -15 5 -4 12 -2 15 3 4 5 2 12 -3 15 -5 4
-12 2 -15 -3z"/>
<path d="M2763 698 c-6 -7 -16 -38 -23 -68 -20 -86 -24 -89 -54 -42 -14 23
-31 42 -36 42 -18 0 -14 -9 68 -138 35 -56 66 -64 34 -9 -19 34 -19 77 1 77 7
-1 37 -11 67 -24 52 -23 70 -25 70 -8 0 4 -30 19 -66 32 -36 14 -68 28 -70 31
-2 4 3 30 12 59 16 53 15 70 -3 48z"/>
<path d="M2840 680 c0 -16 81 -120 92 -120 15 0 3 23 -39 79 -37 49 -53 61
-53 41z"/>
<path d="M1039 609 c-41 -60 -46 -101 -5 -44 45 62 64 77 86 65 35 -19 34 -37
-4 -89 -24 -32 -33 -52 -26 -56 6 -4 13 -5 14 -4 37 48 67 104 64 121 -2 13
-16 29 -33 38 -16 8 -31 18 -33 23 -8 17 -24 4 -63 -54z"/>
<path d="M1213 564 c-26 -11 -13 -25 17 -19 36 8 60 -8 60 -37 0 -16 -5 -19
-22 -15 -13 3 -37 8 -54 12 -22 5 -35 2 -47 -9 -28 -28 4 -76 49 -76 13 0 27
-8 33 -17 5 -10 11 -16 13 -13 17 26 58 113 58 123 0 32 -73 66 -107 51z m51
-95 c14 -12 -13 -39 -39 -39 -28 0 -49 24 -41 46 5 12 14 14 38 9 18 -4 37
-11 42 -16z"/>
<path d="M1357 480 c-41 -91 -46 -109 -32 -107 9 1 85 159 85 178 0 27 -20 0
-53 -71z"/>
<path d="M1570 493 c-42 -13 -60 -29 -75 -66 -31 -76 7 -148 78 -150 35 -1 87
25 87 43 0 15 -26 12 -40 -5 -17 -21 -73 -19 -93 3 -20 22 -22 77 -4 112 28
56 104 59 129 5 14 -31 31 -33 26 -4 -5 36 -72 74 -108 62z"/>
<path d="M2467 472 c-37 -41 -11 -75 55 -70 34 2 43 0 46 -14 5 -24 -42 -46
-61 -30 -18 15 -30 3 -16 -15 15 -17 33 -17 70 3 25 13 30 20 27 47 -3 32 -4
32 -60 35 -43 2 -58 7 -58 18 0 19 40 34 62 23 9 -5 19 -5 22 0 17 26 -63 29
-87 3z"/>
<path d="M2627 474 c-40 -21 -23 -37 18 -17 35 17 46 33 23 33 -7 -1 -26 -8
-41 -16z"/>
<path d="M2395 418 c14 -58 11 -100 -7 -112 -28 -17 -51 4 -65 59 -13 50 -19
62 -29 53 -9 -9 24 -120 38 -129 21 -14 54 -10 68 6 8 10 21 13 33 9 15 -5 19
-3 15 8 -3 8 -14 42 -23 76 -18 64 -44 90 -30 30z"/>
<path d="M2166 395 c-8 -8 -21 -13 -28 -10 -12 5 -12 -11 2 -96 9 -62 21 -104
29 -107 9 -3 11 5 6 32 -7 36 -7 36 28 36 26 0 40 6 51 22 48 68 -32 179 -88
123z m58 -21 c25 -25 30 -61 12 -89 -30 -46 -76 -20 -76 44 0 56 31 78 64 45z"/>
<path d="M1720 385 c-16 -20 -5 -32 14 -16 24 20 70 10 74 -16 3 -21 -1 -23
-45 -23 -54 0 -73 -12 -73 -47 0 -29 33 -46 75 -39 22 5 36 2 41 -6 10 -15 22
44 23 104 1 27 -4 40 -18 48 -29 15 -77 12 -91 -5z m70 -110 c-16 -19 -66 -20
-73 -2 -8 22 6 35 43 39 38 3 50 -12 30 -37z"/>
<path d="M1921 381 c-7 -5 -22 -6 -33 -3 -18 4 -19 0 -16 -68 2 -48 7 -75 16
-78 9 -3 12 13 12 55 0 60 11 83 41 83 22 0 29 -20 29 -86 0 -30 5 -54 10 -54
6 0 10 20 10 44 0 58 15 96 38 96 31 0 42 -22 42 -82 0 -32 4 -58 10 -58 6 0
10 28 10 64 0 76 -17 102 -59 91 -33 -8 -51 -8 -76 -1 -11 4 -26 2 -34 -3z"/>
</g>
</svg>
