<?xml version="1.0" standalone="no"?>
<!DOCTYPE svg PUBLIC "-//W3C//DTD SVG 20010904//EN"
 "http://www.w3.org/TR/2001/REC-SVG-20010904/DTD/svg10.dtd">
<svg version="1.0" xmlns="http://www.w3.org/2000/svg"
 width="728.000000pt" height="725.000000pt" viewBox="0 0 728.000000 725.000000"
 preserveAspectRatio="xMidYMid meet">

<g transform="translate(0.000000,725.000000) scale(0.100000,-0.100000)"
fill="#000000" stroke="none">
<path d="M3330 7034 c-225 -23 -271 -29 -340 -49 -25 -7 -72 -19 -105 -25 -87
-18 -458 -134 -480 -149 -5 -4 -32 -16 -60 -25 -27 -10 -78 -31 -113 -47 -34
-16 -69 -29 -77 -29 -8 0 -15 -3 -15 -8 0 -4 -15 -13 -32 -20 -18 -7 -40 -18
-48 -23 -8 -5 -22 -12 -30 -16 -8 -3 -34 -19 -57 -35 -23 -15 -46 -28 -51 -28
-6 0 -33 -16 -61 -35 -29 -19 -70 -44 -91 -56 -22 -13 -40 -26 -40 -29 0 -4
-29 -26 -65 -49 -36 -22 -65 -46 -65 -51 0 -6 -35 -33 -77 -61 -63 -41 -310
-263 -372 -333 -107 -124 -153 -180 -186 -229 -22 -32 -61 -88 -87 -125 -88
-123 -103 -145 -113 -161 -5 -9 -12 -18 -15 -21 -3 -3 -18 -30 -34 -60 -16
-30 -39 -68 -52 -85 -12 -16 -25 -41 -29 -54 -4 -13 -20 -45 -35 -71 -15 -26
-31 -58 -35 -71 -4 -13 -16 -38 -26 -55 -11 -17 -19 -37 -19 -43 0 -7 -8 -31
-19 -54 -10 -23 -30 -76 -45 -117 -15 -41 -32 -83 -37 -93 -10 -18 -30 -83
-65 -207 -9 -30 -19 -66 -24 -80 -5 -14 -12 -45 -16 -70 -3 -25 -15 -71 -25
-104 -12 -35 -19 -89 -19 -135 -1 -42 -5 -96 -11 -121 -15 -66 -38 -350 -39
-465 0 -112 15 -266 35 -365 8 -36 17 -103 20 -150 4 -47 11 -89 15 -95 5 -5
14 -39 20 -75 7 -36 17 -74 23 -85 6 -11 18 -49 28 -85 51 -187 123 -393 139
-398 5 -2 10 -12 10 -21 0 -22 123 -268 174 -345 21 -33 41 -67 44 -76 8 -18
160 -240 205 -298 38 -48 103 -125 145 -171 19 -20 54 -62 79 -93 25 -32 49
-58 52 -58 8 0 97 -83 102 -96 6 -15 147 -135 239 -205 47 -35 96 -74 110 -86
14 -13 29 -23 33 -23 5 0 36 -20 70 -43 106 -75 257 -162 399 -231 75 -36 141
-66 147 -66 6 0 11 -4 11 -9 0 -5 17 -12 37 -16 20 -4 53 -15 73 -25 20 -10
62 -26 95 -35 33 -10 94 -29 135 -43 41 -14 93 -29 115 -33 22 -5 83 -19 135
-32 99 -25 213 -43 340 -53 41 -3 108 -10 148 -15 94 -12 453 -11 512 1 25 5
104 14 177 20 72 5 169 19 215 31 45 12 101 24 123 26 22 3 45 9 50 13 6 4 44
18 85 29 155 44 218 65 325 107 109 43 417 194 485 238 19 12 62 40 95 62 33
21 65 41 70 43 17 7 129 83 161 110 17 14 44 36 60 49 118 92 187 154 329 297
131 132 204 216 297 342 80 108 156 222 169 253 4 9 14 22 23 29 9 7 16 18 16
23 0 5 14 29 30 53 17 24 30 47 30 52 0 4 25 58 56 118 30 61 62 128 70 150
57 150 137 390 149 444 8 35 18 68 23 75 5 6 15 47 22 91 6 44 18 95 26 114 8
18 18 77 23 132 5 54 12 102 14 106 3 5 11 96 17 203 9 161 9 235 -4 428 -9
128 -19 238 -23 245 -3 6 -10 43 -14 81 -9 88 -45 264 -57 280 -5 6 -14 38
-21 71 -7 33 -17 65 -21 70 -5 6 -8 13 -9 18 0 4 -5 24 -11 45 -5 20 -10 49
-10 64 0 14 -4 28 -8 30 -4 2 -21 39 -36 83 -31 87 -161 372 -176 385 -4 3
-21 34 -39 70 -19 36 -42 76 -51 90 -9 14 -37 57 -61 95 -24 39 -68 104 -98
145 -31 41 -68 93 -83 115 -72 107 -367 414 -478 498 -30 23 -83 65 -118 94
-35 29 -66 53 -70 53 -4 0 -20 13 -37 28 -34 32 -153 111 -205 137 -19 10 -42
24 -51 31 -19 17 -355 184 -369 184 -6 0 -29 9 -52 21 -23 12 -64 28 -92 36
-28 8 -55 18 -61 22 -5 4 -28 12 -50 19 -22 6 -92 27 -155 46 -63 19 -153 44
-200 56 -47 12 -101 26 -121 31 -132 34 -727 55 -939 33z m645 -133 c44 -7
114 -16 155 -21 41 -5 93 -14 115 -19 22 -5 74 -16 115 -25 108 -23 205 -50
285 -81 39 -14 109 -39 156 -55 48 -15 104 -37 125 -48 22 -11 70 -32 108 -47
38 -15 85 -38 104 -51 19 -13 38 -24 42 -24 29 0 420 -243 420 -262 0 -4 5 -8
11 -8 35 0 446 -384 473 -441 5 -10 12 -19 17 -19 6 0 68 -71 122 -140 7 -8
23 -29 37 -46 14 -17 34 -43 45 -58 11 -15 28 -37 38 -48 9 -12 17 -24 17 -28
0 -4 11 -19 24 -35 24 -28 119 -193 144 -250 7 -16 19 -36 26 -45 8 -8 19 -32
27 -52 7 -21 17 -38 21 -38 4 0 8 -6 8 -13 0 -7 16 -46 36 -87 20 -41 51 -122
70 -180 20 -58 39 -114 44 -125 27 -63 90 -322 106 -439 8 -55 18 -102 23
-105 34 -21 47 -682 17 -881 -16 -114 -39 -226 -61 -305 -7 -27 -17 -72 -20
-99 -4 -27 -10 -56 -15 -65 -5 -9 -16 -45 -25 -81 -10 -36 -21 -69 -25 -75 -4
-5 -10 -23 -14 -40 -4 -16 -15 -48 -25 -70 -10 -22 -28 -67 -41 -100 -32 -85
-158 -340 -199 -405 -20 -30 -46 -74 -58 -97 -41 -75 -150 -223 -165 -223 -5
0 -8 -6 -8 -13 0 -8 -21 -39 -47 -69 -27 -31 -64 -75 -83 -99 -116 -143 -319
-339 -459 -444 -14 -10 -33 -27 -42 -37 -9 -10 -20 -18 -23 -18 -4 0 -40 -25
-81 -55 -40 -30 -75 -55 -79 -55 -3 0 -37 -20 -76 -45 -39 -25 -74 -45 -78
-45 -4 0 -31 -16 -61 -35 -29 -19 -58 -35 -65 -35 -7 0 -27 -11 -46 -25 -19
-14 -39 -25 -45 -25 -7 0 -38 -13 -71 -28 -72 -35 -114 -52 -224 -91 -219 -76
-257 -87 -405 -115 -38 -8 -115 -23 -170 -34 -189 -37 -313 -45 -631 -39 -169
3 -323 10 -354 17 -75 16 -224 46 -285 58 -27 5 -79 19 -115 30 -36 11 -94 29
-130 40 -36 11 -81 26 -100 33 -19 7 -69 25 -110 40 -41 15 -111 45 -155 66
-44 21 -101 47 -127 58 -27 10 -48 22 -48 26 0 4 -11 10 -25 13 -13 3 -46 19
-72 35 -122 73 -169 103 -188 119 -11 10 -47 33 -78 51 -32 18 -78 50 -102 70
-24 20 -63 50 -86 66 -23 17 -79 65 -124 108 -45 42 -87 77 -93 77 -7 0 -12 4
-12 8 0 4 -33 42 -74 84 -41 42 -83 90 -94 105 -11 16 -41 51 -67 78 -26 28
-53 57 -59 65 -32 40 -116 160 -140 200 -15 25 -40 63 -55 85 -16 22 -48 77
-71 123 -23 45 -46 85 -51 88 -5 3 -9 11 -9 19 0 7 -16 37 -35 66 -19 30 -35
58 -35 64 0 5 -7 24 -16 40 -9 17 -24 53 -34 82 -10 29 -25 67 -33 85 -8 18
-23 58 -32 88 -10 30 -26 73 -36 96 -11 23 -19 49 -19 59 0 10 -12 59 -26 109
-14 50 -29 105 -34 121 -4 17 -14 68 -20 115 -7 47 -16 90 -20 95 -13 16 -40
323 -40 446 0 159 17 384 34 460 8 35 20 110 27 167 7 56 16 102 20 102 3 0 9
19 13 43 7 49 53 223 67 252 5 11 27 74 50 140 22 66 56 152 75 192 19 39 34
79 34 87 0 9 4 16 9 16 5 0 12 12 16 28 3 15 22 52 40 82 19 30 40 66 46 80 6
14 15 32 20 40 5 8 13 24 19 35 5 11 20 36 32 56 13 19 33 51 45 70 12 19 27
39 32 46 6 6 23 31 38 55 31 49 40 59 100 123 24 24 43 49 43 55 0 13 373 390
387 390 6 0 37 26 69 58 33 31 77 68 99 82 22 13 67 45 101 71 33 26 74 54 91
63 17 8 37 22 45 29 11 12 55 37 220 127 10 6 26 15 35 20 10 6 29 15 43 21
14 6 34 16 44 21 40 21 165 71 256 102 53 18 110 41 127 50 18 9 43 16 57 16
14 0 27 4 30 9 3 5 23 12 43 17 21 4 40 8 43 9 114 26 161 38 190 46 53 14
283 49 337 50 27 1 62 5 78 9 46 10 469 4 560 -9z"/>
<path d="M3490 6799 c-208 -7 -323 -19 -362 -40 -17 -9 -18 -26 -18 -217 0
-114 -4 -212 -8 -218 -7 -11 -20 -15 -138 -40 -40 -8 -108 -28 -153 -44 -45
-16 -87 -27 -94 -24 -13 5 -87 122 -125 199 -39 79 -91 152 -111 158 -19 4
-92 -23 -176 -65 -192 -98 -351 -188 -365 -208 -3 -3 -28 -19 -55 -34 -28 -15
-65 -40 -82 -56 -18 -17 -37 -30 -42 -30 -6 0 -11 -3 -11 -7 -1 -5 -24 -24
-52 -43 -80 -55 -89 -66 -82 -98 6 -23 66 -127 92 -157 4 -5 16 -25 25 -42 9
-18 25 -48 34 -65 9 -18 25 -42 35 -52 10 -11 18 -26 18 -34 0 -7 -35 -48 -78
-90 -43 -43 -94 -95 -114 -117 -19 -22 -46 -50 -60 -63 l-25 -22 -59 31 c-32
17 -60 35 -62 40 -2 5 -7 9 -11 9 -4 0 -58 27 -119 60 -91 50 -115 59 -131 50
-18 -9 -50 -52 -158 -212 -24 -35 -46 -67 -51 -73 -7 -9 -28 -47 -125 -225
-19 -36 -42 -89 -52 -117 -9 -29 -20 -53 -25 -53 -4 0 -11 -12 -15 -27 -3 -16
-18 -53 -32 -84 -40 -91 -38 -95 107 -171 102 -54 195 -109 211 -126 16 -16
14 -28 -18 -167 -19 -82 -39 -158 -44 -167 -5 -10 -9 -24 -9 -33 0 -29 -39
-35 -227 -35 -103 0 -193 -4 -199 -8 -6 -4 -19 -43 -29 -86 -26 -118 -27 -594
-1 -756 10 -63 22 -122 26 -130 6 -12 44 -16 218 -20 121 -3 215 -9 220 -15 5
-5 15 -37 22 -70 18 -86 51 -208 59 -220 4 -5 13 -27 20 -48 16 -47 10 -55
-73 -100 -33 -19 -110 -63 -169 -97 -107 -63 -109 -64 -104 -96 10 -58 74
-200 157 -349 31 -55 60 -107 64 -115 3 -8 20 -33 37 -55 16 -22 42 -58 57
-80 44 -67 175 -240 186 -247 19 -13 63 -9 76 7 7 8 16 15 21 15 4 0 51 27
104 60 53 33 99 60 102 60 3 0 17 8 31 19 58 40 58 40 200 -99 73 -72 132
-134 132 -138 -1 -11 -42 -86 -72 -130 -48 -71 -118 -210 -118 -235 0 -13 8
-31 18 -40 39 -35 263 -188 312 -212 19 -10 37 -21 40 -25 4 -6 200 -102 365
-181 50 -23 125 -49 146 -49 19 0 47 38 79 105 13 28 34 64 47 81 13 17 23 35
23 41 0 5 9 20 20 33 11 13 20 28 20 35 0 7 10 24 23 38 22 27 63 36 83 18 5
-4 34 -13 64 -20 88 -19 224 -55 238 -64 9 -6 12 -59 12 -206 0 -230 -3 -222
99 -241 103 -18 583 -16 721 3 152 22 179 27 188 41 4 6 9 105 12 221 l5 209
30 8 c121 31 265 73 288 85 37 19 60 10 80 -32 9 -18 41 -72 72 -119 30 -47
59 -96 64 -108 12 -31 62 -88 78 -88 7 0 29 7 50 16 64 27 127 55 148 67 11 6
65 34 120 62 109 56 115 59 224 131 41 27 89 58 107 69 18 11 46 32 63 47 17
16 34 28 37 28 3 0 28 17 55 38 40 30 48 43 49 70 0 17 -4 32 -9 32 -5 0 -15
16 -22 35 -7 19 -16 35 -21 35 -4 0 -16 19 -27 43 -20 42 -52 98 -61 107 -3 3
-18 29 -33 59 l-28 55 134 134 134 134 54 -29 c30 -15 56 -31 57 -35 2 -5 8
-8 14 -8 5 0 28 -13 51 -28 66 -44 163 -92 186 -92 12 0 29 9 39 21 9 11 28
33 42 47 30 32 177 250 205 305 123 237 213 428 220 468 8 43 -9 63 -83 101
-26 12 -49 26 -52 29 -3 3 -34 19 -70 36 -36 17 -84 45 -108 63 -40 29 -42 33
-37 68 4 20 15 64 26 97 10 33 23 91 29 129 14 88 34 128 63 126 12 -1 101 -2
198 -1 215 1 213 0 225 118 12 125 9 720 -5 736 -6 8 -14 48 -17 91 l-7 76
-216 0 -216 0 -13 40 c-6 22 -12 50 -12 62 0 28 -47 185 -66 220 -19 36 -18
77 4 85 9 4 58 32 107 63 50 31 118 73 153 94 70 43 89 68 74 100 -51 107
-178 359 -197 391 -13 22 -29 51 -35 65 -6 13 -15 27 -19 30 -4 3 -36 48 -70
100 -98 151 -162 229 -189 230 -12 0 -55 -19 -95 -42 -40 -22 -95 -53 -123
-68 -58 -30 -117 -70 -122 -82 -10 -22 -43 1 -135 95 -56 57 -117 114 -135
127 -56 41 -58 53 -15 123 21 34 41 64 44 67 16 13 109 213 109 233 0 24 -27
53 -90 97 -19 13 -37 27 -40 30 -3 3 -54 37 -115 74 -60 38 -121 76 -135 85
-33 22 -294 150 -389 191 -94 41 -121 35 -145 -30 -3 -8 -17 -33 -31 -55 -13
-22 -31 -56 -40 -75 -8 -19 -19 -42 -25 -50 -5 -8 -19 -34 -31 -57 -11 -22
-29 -49 -39 -58 -18 -16 -23 -16 -57 -2 -21 8 -58 18 -83 22 -57 9 -225 51
-239 60 -7 4 -11 77 -11 210 0 229 0 228 -72 240 -79 14 -351 20 -568 14z
m314 -315 c14 -5 16 -33 16 -208 0 -110 4 -206 8 -212 4 -6 32 -15 62 -18 159
-20 496 -101 605 -146 52 -22 137 -50 150 -50 8 0 24 17 35 38 11 20 31 55 45
77 26 44 63 116 80 155 17 42 56 100 66 100 15 0 145 -67 241 -124 67 -39 88
-56 88 -72 0 -12 -29 -74 -65 -138 -36 -64 -65 -121 -65 -126 0 -6 -4 -10 -8
-10 -4 0 -18 -21 -31 -47 l-23 -48 38 -32 c22 -18 84 -70 139 -115 170 -140
200 -169 260 -243 22 -28 46 -56 53 -64 7 -8 38 -45 69 -82 31 -39 63 -69 73
-69 23 0 48 14 140 76 85 58 206 124 227 124 7 0 13 -4 13 -8 0 -5 11 -22 25
-38 14 -16 36 -49 49 -74 12 -25 42 -80 65 -123 36 -65 41 -80 30 -93 -12 -15
-145 -104 -155 -104 -2 0 -23 -12 -47 -27 -144 -91 -147 -94 -147 -119 0 -13
4 -24 9 -24 5 0 11 -8 14 -17 3 -10 20 -56 37 -103 64 -167 76 -206 89 -270 7
-36 19 -81 26 -101 8 -21 21 -88 30 -150 9 -63 21 -118 26 -124 6 -6 86 -9
208 -8 170 2 201 1 212 -13 9 -11 12 -61 12 -194 -1 -98 -4 -184 -8 -189 -4
-7 -71 -11 -190 -11 -101 0 -195 -4 -208 -9 -25 -10 -35 -44 -43 -141 -4 -49
-33 -191 -44 -215 -5 -11 -16 -47 -24 -80 -29 -121 -49 -190 -57 -200 -5 -5
-9 -15 -9 -22 0 -7 -11 -37 -25 -67 -14 -30 -25 -68 -25 -84 0 -27 8 -35 67
-69 36 -21 87 -50 112 -65 25 -14 75 -41 110 -59 34 -18 65 -38 67 -43 4 -11
-29 -78 -126 -254 -25 -45 -53 -85 -63 -88 -10 -3 -42 8 -75 27 -31 17 -75 41
-97 52 -22 11 -53 29 -69 40 -48 34 -138 77 -148 71 -5 -4 -30 -34 -55 -68
-104 -141 -249 -291 -410 -425 -116 -95 -132 -120 -100 -153 15 -15 117 -183
117 -192 0 -3 16 -28 35 -55 37 -51 43 -75 23 -94 -24 -22 -83 -63 -113 -79
-16 -8 -67 -36 -112 -62 -49 -28 -88 -44 -97 -40 -9 4 -29 27 -43 53 -15 25
-33 52 -40 59 -7 7 -13 19 -13 26 0 8 -6 19 -14 25 -8 7 -17 24 -21 39 -9 37
-71 129 -96 143 -16 8 -31 6 -72 -14 -29 -13 -74 -32 -102 -41 -27 -10 -59
-21 -70 -26 -62 -26 -113 -41 -230 -69 -187 -46 -204 -49 -264 -55 -91 -9 -90
-7 -93 -245 l-3 -206 -191 -3 -192 -2 -6 22 c-3 13 -6 106 -6 208 0 102 -4
190 -8 196 -4 7 -38 15 -77 19 -71 6 -259 45 -349 71 -26 8 -58 14 -70 14 -12
0 -26 4 -32 8 -5 4 -27 14 -49 21 -22 7 -82 29 -133 48 -106 41 -125 38 -154
-25 -20 -44 -67 -130 -126 -230 -28 -47 -49 -72 -61 -72 -17 0 -190 85 -201
99 -3 3 -22 15 -43 26 -22 11 -50 30 -64 43 l-24 22 19 33 c11 17 38 66 60
107 22 41 56 102 76 134 20 33 36 69 36 80 0 28 -33 65 -100 112 -137 96 -292
250 -453 449 -35 43 -67 45 -119 10 -37 -25 -102 -62 -168 -95 -19 -10 -52
-32 -74 -49 -21 -17 -44 -31 -50 -31 -17 0 -49 42 -108 140 -77 128 -100 176
-94 197 3 10 44 41 91 68 46 28 85 53 85 58 0 4 5 7 11 7 6 0 44 21 85 47 70
45 74 50 69 78 -3 16 -9 31 -14 35 -4 3 -12 16 -16 30 -4 14 -15 43 -25 65
-44 100 -82 217 -105 327 -9 40 -22 90 -29 113 -7 22 -16 76 -20 119 -11 124
7 115 -239 118 l-212 3 -3 189 c-2 145 1 191 10 198 7 4 99 8 204 8 141 0 194
3 202 13 11 14 19 51 32 152 15 115 84 390 115 460 15 31 59 155 69 191 7 25
-36 53 -279 184 -90 48 -91 49 -69 107 9 26 23 55 30 63 6 8 27 43 45 78 19
34 41 75 50 91 8 16 23 36 32 45 15 16 19 15 59 -5 48 -25 101 -60 106 -71 2
-5 12 -8 23 -8 10 0 19 -4 19 -10 0 -5 7 -10 15 -10 8 0 42 -18 76 -40 85 -55
98 -53 150 23 23 34 66 91 94 127 55 69 282 292 325 318 62 39 120 95 120 115
0 12 -29 69 -64 127 -36 58 -81 131 -100 163 -35 56 -45 87 -28 87 4 0 31 18
61 40 29 22 57 40 61 40 5 0 35 17 67 39 32 21 73 46 91 55 32 17 35 17 54 -1
26 -23 70 -90 87 -130 7 -18 17 -33 21 -33 4 0 11 -11 14 -25 4 -14 11 -25 16
-25 6 0 10 -5 10 -12 0 -20 80 -118 96 -118 9 0 33 9 53 19 89 47 226 94 396
136 101 25 192 45 201 45 10 0 46 5 81 11 l63 11 0 214 c0 213 0 215 23 224
25 10 356 13 381 4z"/>
<path d="M3391 5896 c-21 -26 -9 -51 24 -51 27 0 30 3 30 30 0 23 -5 31 -21
33 -11 2 -26 -4 -33 -12z"/>
<path d="M3525 5830 c-25 -26 -26 -31 -14 -46 8 -10 16 -51 20 -100 6 -93 23
-125 68 -123 34 1 85 31 89 53 3 15 -2 17 -43 11 l-46 -7 3 73 3 74 44 7 c25
4 47 6 49 3 2 -2 19 -48 38 -101 37 -110 37 -113 -28 -169 -39 -33 -41 -38
-26 -49 10 -7 30 -11 46 -8 26 3 35 16 80 105 27 56 60 125 73 152 13 28 29
55 37 61 8 6 13 19 10 30 -5 27 -95 34 -105 8 -4 -10 0 -22 10 -29 21 -15 21
-31 -2 -74 l-18 -34 -16 42 c-21 52 -21 61 1 77 34 25 -1 38 -105 39 -85 0
-98 3 -101 18 -5 26 -35 20 -67 -13z"/>
<path d="M4394 5825 c-28 -12 -46 -37 -59 -83 -4 -12 -10 -20 -15 -17 -14 9
-34 -24 -22 -37 7 -9 3 -33 -14 -83 -13 -38 -24 -71 -24 -72 0 -1 -10 -3 -22
-5 -13 -2 -24 -10 -26 -18 -2 -11 16 -22 61 -38 36 -12 70 -22 76 -22 17 0 13
37 -4 44 -19 7 -19 24 3 96 16 57 19 60 49 60 17 0 35 5 39 12 7 10 -15 33
-39 41 -7 2 -6 15 3 38 19 50 27 55 49 35 26 -23 51 -14 51 18 0 20 -6 27 -27
32 -16 3 -33 7 -39 9 -5 1 -23 -3 -40 -10z"/>
<path d="M3362 5797 c-12 -15 -4 -31 20 -40 11 -4 19 -22 23 -54 3 -26 9 -60
11 -75 5 -23 2 -28 -13 -28 -13 0 -22 11 -28 32 -11 36 -39 54 -97 63 -42 6
-51 29 -17 40 14 5 28 0 43 -14 28 -27 46 -27 46 0 0 44 -18 59 -71 59 -40 0
-55 -5 -74 -25 -28 -27 -31 -48 -12 -85 9 -19 28 -29 72 -41 66 -17 78 -37 31
-54 -25 -8 -31 -6 -52 18 -24 28 -39 34 -48 18 -8 -12 12 -63 27 -73 19 -12
96 -9 120 4 12 6 54 12 93 13 40 1 77 5 83 9 19 12 12 34 -13 40 -21 5 -24 12
-30 88 -10 118 -10 118 -60 118 -24 0 -48 -6 -54 -13z"/>
<path d="M4082 5757 c-41 -23 -57 -58 -57 -124 0 -88 20 -107 114 -110 l69 -2
27 39 c39 56 43 115 13 160 -32 47 -114 66 -166 37z m86 -46 c17 -15 22 -30
22 -69 0 -66 -24 -98 -62 -83 -32 12 -43 44 -35 102 9 67 34 84 75 50z"/>
<path d="M3080 5740 c-14 -5 -44 -14 -67 -20 -32 -8 -43 -16 -43 -30 0 -11 8
-20 21 -22 17 -2 27 -18 44 -73 l22 -70 -30 -6 c-16 -4 -34 -12 -40 -18 -19
-19 -82 -13 -102 9 -10 11 -16 22 -14 24 2 2 30 20 62 40 31 20 57 43 57 51 0
20 -52 45 -93 45 -25 0 -44 -9 -66 -29 -26 -24 -31 -36 -31 -75 0 -52 34 -117
71 -137 31 -16 106 -5 133 20 12 11 35 21 52 21 41 0 129 35 129 51 0 8 -13
15 -32 17 -29 3 -33 8 -48 57 -22 69 -16 87 27 83 30 -3 33 0 36 26 5 43 -27
56 -88 36z m-170 -126 c0 -8 -32 -33 -42 -34 -5 0 -8 9 -8 20 0 15 7 20 25 20
14 0 25 -3 25 -6z"/>
<path d="M4592 5718 c-24 -24 -14 -45 27 -52 69 -11 69 -22 4 -146 -52 -99
-61 -110 -85 -110 -56 0 -40 -28 40 -68 23 -12 51 -22 62 -22 23 0 27 28 5 36
-8 4 -15 13 -15 22 0 23 113 221 127 222 6 0 26 -14 43 -32 25 -25 36 -29 49
-21 9 5 17 19 19 29 2 15 -16 29 -80 63 -46 24 -99 55 -118 68 -39 26 -60 29
-78 11z"/>
<path d="M2708 5592 c-32 -19 -38 -52 -9 -52 19 0 31 -25 31 -67 0 -29 -4 -29
-45 4 -27 21 -33 33 -29 50 8 29 -13 30 -66 3 -46 -24 -56 -60 -16 -60 12 0
35 -11 49 -24 14 -13 40 -34 58 -47 19 -13 42 -32 52 -42 30 -30 52 -18 51 28
-8 223 -8 225 -29 225 -11 0 -32 -8 -47 -18z"/>
<path d="M2414 5525 c-12 -49 37 -75 58 -31 15 33 4 56 -26 56 -19 0 -27 -7
-32 -25z"/>
<path d="M2463 5450 c-41 -37 -42 -50 -3 -50 20 0 33 -7 41 -22 7 -13 15 -25
19 -28 3 -3 16 -21 28 -41 16 -27 19 -38 10 -47 -14 -14 -48 -16 -48 -3 0 16
-83 103 -107 112 -29 11 -77 -10 -93 -41 -6 -11 -16 -20 -23 -20 -7 0 -27 -13
-45 -28 -39 -32 -36 -62 5 -59 37 3 116 -93 107 -128 -8 -32 18 -43 44 -18 56
53 150 124 227 173 60 37 68 63 22 68 -22 3 -37 18 -74 75 -42 66 -60 87 -73
87 -3 -1 -20 -14 -37 -30z m-34 -191 c23 -29 41 -55 41 -60 0 -13 -30 -39 -45
-39 -16 0 -85 81 -85 100 0 15 29 50 41 50 4 0 26 -23 48 -51z"/>
<path d="M4820 5433 c-23 -9 -60 -45 -76 -75 -42 -80 11 -156 119 -173 32 -5
37 -10 37 -32 0 -30 61 -93 91 -93 11 0 19 -7 19 -16 0 -9 32 -50 71 -92 39
-42 92 -105 117 -142 26 -36 50 -66 54 -68 5 -2 8 -8 8 -13 0 -20 65 -99 82
-99 15 0 17 -5 12 -26 -9 -35 21 -96 56 -117 79 -47 210 18 210 104 0 21 -25
76 -44 94 -20 20 -54 35 -79 35 -36 0 -93 -27 -111 -51 -8 -12 -19 -18 -25
-14 -21 13 -10 35 27 54 20 11 52 34 70 51 42 42 42 78 2 117 -16 15 -30 34
-30 41 0 19 -42 72 -57 72 -13 0 -16 -10 -14 -40 0 -8 -21 -29 -47 -46 -78
-52 -86 -55 -100 -34 -10 16 -4 25 43 66 64 56 83 93 67 130 -7 13 -23 29 -37
36 -14 6 -25 14 -25 18 0 4 23 26 50 49 28 23 50 47 50 53 0 17 -58 68 -76 68
-13 0 -15 -6 -11 -29 5 -26 -3 -36 -100 -122 -58 -52 -108 -92 -112 -90 -3 2
-5 12 -3 22 2 11 -5 20 -20 24 -35 11 -68 46 -68 72 0 38 28 82 57 89 35 9 57
-7 61 -44 4 -41 28 -61 49 -40 38 38 -30 138 -94 138 -45 0 -86 -22 -118 -65
-26 -33 -28 -34 -53 -21 -49 26 -63 41 -67 72 -7 56 6 61 77 26 74 -38 74 -38
87 -13 14 26 -4 79 -36 109 -23 21 -76 29 -113 15z m87 -48 c3 -9 3 -19 -1
-22 -9 -10 -58 16 -51 27 10 16 45 12 52 -5z m329 -319 c22 -23 17 -39 -30
-85 -48 -47 -79 -50 -90 -8 -5 17 4 31 42 64 53 47 57 49 78 29z m175 -222
c13 -25 12 -28 -19 -54 -18 -15 -44 -33 -58 -41 -24 -12 -28 -12 -45 10 -11
13 -18 27 -17 31 6 15 93 78 109 79 9 1 22 -11 30 -25z m127 -186 c13 -13 16
-66 4 -84 -12 -20 -76 -54 -100 -54 -27 0 -47 42 -33 68 14 25 53 60 81 71 33
13 34 13 48 -1z"/>
<path d="M3552 5344 c-48 -24 -112 -88 -112 -113 0 -6 17 -19 38 -30 20 -10
63 -42 95 -70 32 -28 61 -51 64 -51 3 0 34 27 70 60 36 33 72 60 79 60 8 0 14
5 14 10 0 6 6 10 14 10 30 0 24 31 -15 74 -71 78 -156 96 -247 50z"/>
<path d="M2066 5260 c-20 -22 -36 -47 -36 -55 0 -17 31 -20 47 -4 7 7 29 -5
74 -42 80 -67 83 -70 97 -96 19 -36 14 -63 -19 -94 -54 -50 -65 -45 -214 86
-19 17 -30 36 -30 53 0 40 -25 36 -66 -11 -47 -54 -58 -87 -30 -87 12 0 21 5
21 10 0 21 25 8 89 -48 101 -89 121 -102 155 -102 62 0 156 93 156 155 0 37
-23 77 -67 115 -104 90 -116 104 -117 128 -2 39 -20 37 -60 -8z"/>
<path d="M3284 5213 c-12 -2 -30 -13 -39 -24 -17 -18 -17 -20 5 -39 13 -11 26
-20 30 -20 10 0 145 -136 194 -195 40 -48 86 -132 101 -185 4 -14 11 -27 14
-30 4 -3 16 -29 27 -59 19 -54 40 -75 48 -49 54 174 70 224 76 228 3 3 21 30
38 61 40 70 160 200 224 241 26 17 48 37 48 44 0 40 -119 46 -195 10 -47 -21
-175 -143 -175 -166 0 -5 -9 -14 -20 -20 -23 -12 -34 -6 -130 83 -76 69 -94
83 -127 100 -33 17 -89 26 -119 20z"/>
<path d="M3023 5149 c-12 -12 -4 -32 35 -86 12 -17 22 -36 22 -42 0 -6 4 -11
8 -11 4 0 18 -19 30 -42 13 -24 31 -59 42 -78 29 -52 80 -168 80 -180 0 -6 4
-18 10 -28 21 -37 70 -223 89 -337 34 -204 41 -388 41 -1118 0 -592 2 -706 14
-716 9 -8 45 -11 98 -9 l83 3 3 970 c1 534 -1 979 -6 990 -5 11 -21 58 -37
105 -27 83 -62 161 -120 268 -35 65 -208 242 -261 267 -21 10 -51 26 -66 36
-30 22 -49 24 -65 8z"/>
<path d="M4188 5147 c-16 -6 -28 -14 -28 -19 0 -4 -5 -8 -12 -8 -18 0 -118
-79 -184 -146 -90 -91 -138 -166 -173 -274 -18 -52 -37 -108 -44 -125 -8 -22
-12 -300 -15 -1052 l-3 -1023 89 0 c61 0 93 4 100 13 8 9 10 279 9 873 -1 626
2 868 10 890 7 16 19 71 27 122 9 51 19 100 24 110 5 9 17 53 27 97 9 44 21
85 25 90 4 6 17 37 29 70 31 82 78 182 101 215 34 48 90 151 90 166 0 16 -32
17 -72 1z"/>
<path d="M1747 4923 c-16 -19 -20 -39 -18 -86 1 -20 12 -35 41 -55 21 -15 39
-35 40 -44 0 -10 6 -18 13 -19 6 -1 21 -2 32 -2 21 -2 135 -67 135 -77 0 -4
-6 -14 -13 -24 -13 -18 -18 -17 -93 23 -44 22 -87 41 -97 41 -17 0 -47 -47
-47 -73 0 -8 -7 -20 -15 -27 -8 -7 -15 -25 -15 -41 0 -18 -5 -29 -13 -29 -8 0
-19 -19 -26 -41 -15 -49 -4 -67 28 -49 18 9 33 7 83 -12 66 -25 79 -41 54 -66
-15 -16 -21 -15 -81 6 -81 28 -99 28 -119 -3 -32 -49 -9 -155 34 -155 15 0 20
7 20 30 0 17 -7 33 -17 38 -24 14 -9 44 19 40 20 -3 24 -11 29 -56 7 -55 22
-82 45 -82 8 0 14 -7 14 -15 0 -18 -14 -19 -94 -4 -53 10 -66 9 -94 -5 -29
-15 -32 -21 -32 -62 0 -43 -2 -46 -22 -41 -13 3 -48 9 -79 12 l-57 7 0 -50 c0
-55 20 -76 43 -45 12 16 20 16 91 5 205 -34 202 -33 207 -54 8 -29 39 -18 49
17 4 17 10 48 13 70 10 75 30 170 38 183 5 7 7 28 5 47 -2 27 3 39 20 51 12 8
22 23 22 33 0 10 11 44 25 75 14 31 25 65 25 76 0 27 -24 25 -42 -2 l-15 -22
-58 24 c-32 14 -60 30 -62 37 -2 6 6 21 19 32 19 19 21 24 10 42 -14 22 -7 43
11 32 7 -4 14 -8 17 -8 3 -1 29 -13 58 -28 41 -22 52 -32 52 -52 0 -39 27 -30
50 16 12 22 39 70 61 105 44 72 48 94 19 94 -11 0 -20 -7 -20 -15 0 -23 -17
-18 -81 21 -67 40 -75 50 -60 68 12 14 5 46 -10 46 -5 0 -14 -9 -21 -20 -17
-26 -24 -25 -65 6 l-34 26 22 24 c24 26 20 54 -9 54 -10 0 -26 -8 -35 -17z
m51 -681 c3 -19 -1 -23 -15 -20 -10 2 -19 14 -21 26 -3 19 1 23 15 20 10 -2
19 -14 21 -26z m-36 -184 c11 -18 10 -32 -4 -51 -12 -14 -19 -15 -76 -3 -35 8
-65 16 -68 19 -3 2 -2 17 2 32 7 27 7 28 72 22 36 -4 69 -12 74 -19z"/>
<path d="M1673 4714 c-9 -24 14 -64 37 -64 25 0 34 21 26 55 -5 18 -13 25 -32
25 -13 0 -27 -7 -31 -16z"/>
<path d="M4520 4700 c-52 -9 -112 -31 -131 -47 -8 -6 -26 -14 -41 -18 -38 -10
-136 -102 -186 -174 -23 -34 -42 -66 -42 -72 0 -5 -7 -26 -16 -47 -18 -40 -21
-49 -31 -102 -10 -56 -15 -1202 -5 -1212 16 -16 40 3 60 45 11 23 50 75 86
116 l66 73 0 359 c0 372 3 402 42 415 22 6 62 -17 77 -45 6 -11 12 -134 13
-292 l3 -274 28 -3 c19 -2 48 9 90 35 34 22 87 49 118 62 110 44 99 -15 99
519 0 261 4 482 9 500 6 18 24 51 41 72 36 45 34 65 -7 81 -36 14 -215 20
-273 9z"/>
<path d="M2542 4681 c-23 -4 -49 -16 -57 -27 -19 -24 -18 -29 1 -45 9 -8 28
-31 41 -53 36 -56 42 -154 43 -627 l0 -406 48 -13 c26 -7 52 -16 57 -20 6 -4
35 -21 65 -37 30 -17 69 -38 86 -48 17 -10 38 -16 47 -12 15 6 17 35 17 298 0
285 1 292 21 310 37 32 59 34 85 6 l24 -26 1 -288 c0 -158 4 -327 7 -375 l7
-87 55 -54 c58 -57 100 -109 100 -125 0 -5 9 -19 20 -32 15 -17 23 -21 32 -12
16 16 6 1148 -10 1164 -7 7 -12 29 -12 49 0 58 -48 178 -94 234 -22 28 -45 56
-51 63 -23 29 -102 90 -150 114 -65 34 -300 64 -383 49z"/>
<path d="M5748 4558 c-3 -22 -25 -36 -98 -66 -14 -6 -47 -20 -75 -32 -81 -35
-103 -40 -109 -24 -3 8 -15 14 -26 14 -24 0 -23 -2 12 -96 15 -42 22 -51 38
-47 12 3 20 16 22 35 3 27 9 33 58 50 140 50 243 93 247 104 6 16 -36 84 -52
84 -8 0 -15 -10 -17 -22z"/>
<path d="M4975 4343 c-47 -25 -61 -40 -75 -86 -7 -23 -16 -51 -22 -62 -11 -25
-6 -580 5 -592 5 -4 47 -8 94 -8 72 0 87 3 99 19 11 16 14 78 16 315 2 364 2
396 -5 415 -8 21 -72 20 -112 -1z"/>
<path d="M5564 4346 c-39 -17 -74 -61 -74 -93 0 -67 60 -133 120 -133 21 0 30
-4 27 -12 -2 -8 -18 -12 -37 -10 -19 1 -36 -2 -40 -8 -4 -7 -17 -5 -37 5 -67
33 -110 -23 -92 -119 5 -26 13 -54 18 -64 5 -9 7 -38 5 -64 l-3 -47 46 -21
c25 -11 102 -39 170 -61 67 -23 123 -45 123 -50 0 -5 11 -9 26 -9 24 0 25 2
22 53 -3 45 -6 52 -25 55 -17 3 -23 -2 -23 -16 0 -18 -4 -18 -50 -9 -27 5 -50
12 -50 16 0 3 19 16 41 28 37 20 43 21 56 7 28 -28 38 -10 38 67 -1 160 -36
259 -91 259 -12 0 -30 3 -39 6 -13 5 -10 10 15 25 50 31 59 75 28 152 -20 52
-105 73 -174 43z m124 -48 c36 -36 -11 -106 -77 -115 -48 -7 -77 15 -67 50 9
35 56 63 127 76 3 1 10 -4 17 -11z m55 -237 c4 0 7 -11 7 -22 0 -42 -64 -65
-90 -34 -11 13 -9 20 9 39 19 20 35 24 74 17z m-219 -33 c32 -52 27 -118 -9
-118 -30 0 -61 110 -38 133 13 13 33 7 47 -15z m126 -79 c22 -17 38 -21 70
-16 37 5 42 3 52 -19 6 -13 9 -26 7 -28 -17 -14 -180 -86 -196 -86 -10 0 -34
13 -53 30 l-35 29 33 1 c18 0 42 4 52 10 20 11 45 74 35 90 -10 16 3 12 35
-11z"/>
<path d="M2209 4289 c-6 -13 -8 -41 -4 -73 3 -28 9 -182 13 -342 5 -224 10
-295 21 -307 10 -13 31 -17 83 -17 116 0 108 -21 108 286 0 284 -5 325 -49
389 -49 72 -147 109 -172 64z"/>
<path d="M1432 3875 c-7 -14 -12 -49 -12 -76 0 -42 5 -55 29 -80 21 -21 39
-29 65 -29 56 0 82 18 116 81 27 50 35 59 59 59 35 0 55 -37 41 -74 -9 -25
-36 -45 -55 -43 -5 1 -11 -8 -13 -20 -3 -21 1 -23 43 -23 43 0 47 2 61 35 32
77 9 154 -54 180 -63 27 -115 -2 -158 -87 -22 -43 -28 -49 -52 -46 -23 3 -27
8 -30 41 -3 33 1 39 27 55 17 9 31 25 31 35 0 13 -9 17 -43 17 -37 0 -46 -4
-55 -25z"/>
<path d="M4880 3460 c-70 -12 -233 -70 -256 -91 -11 -11 -24 -19 -30 -19 -16
0 -89 -54 -163 -120 -73 -65 -165 -171 -195 -225 -9 -16 -30 -51 -46 -77 -40
-65 -101 -180 -105 -198 -2 -8 -15 -45 -29 -83 -14 -37 -26 -83 -26 -102 0
-31 3 -35 35 -41 20 -3 63 -4 95 -2 70 5 76 11 116 113 39 100 110 232 155
287 22 26 39 50 39 55 0 19 150 154 223 202 75 48 151 72 176 56 15 -9 14 -72
-1 -85 -46 -38 -93 -70 -103 -70 -20 0 -189 -183 -249 -270 -43 -62 -104 -184
-111 -223 -11 -57 3 -67 95 -67 93 0 111 11 166 103 85 143 154 222 269 311
105 81 199 138 255 155 25 7 54 17 65 21 77 29 110 33 233 33 127 0 132 1 132
21 0 20 -90 126 -107 126 -4 0 -21 12 -38 26 -16 14 -57 41 -90 59 -166 92
-353 131 -505 105z"/>
<path d="M2205 3425 c-164 -36 -352 -141 -463 -259 -77 -82 -70 -92 58 -87
142 5 275 -28 430 -107 47 -24 110 -62 140 -85 69 -51 250 -234 250 -253 0 -8
3 -14 8 -14 4 0 16 -16 26 -35 11 -19 22 -35 26 -35 5 0 11 -11 14 -24 4 -15
17 -28 37 -35 35 -12 119 -14 168 -5 27 6 31 10 31 40 0 43 -72 197 -114 243
-9 10 -16 22 -16 28 0 11 -177 193 -189 193 -4 0 -21 12 -37 26 -16 14 -55 38
-86 54 -31 16 -59 38 -63 49 -14 46 35 81 92 66 40 -10 111 -43 118 -56 4 -6
20 -18 35 -27 40 -25 160 -139 200 -192 19 -25 40 -49 46 -55 13 -13 40 -56
74 -120 15 -27 36 -66 46 -85 11 -19 26 -55 33 -80 21 -73 32 -80 126 -80 87
0 105 8 105 49 0 29 -51 161 -91 234 -16 29 -38 70 -50 92 -12 22 -24 42 -28
45 -3 3 -12 17 -20 32 -8 15 -21 36 -30 46 -9 10 -20 25 -26 34 -65 101 -251
264 -355 311 -229 103 -347 125 -495 92z"/>
<path d="M5530 3023 c-49 -5 -191 -32 -215 -42 -69 -28 -167 -78 -208 -107
-26 -19 -49 -34 -52 -34 -17 0 -143 -126 -200 -200 -127 -164 -139 -186 -114
-217 21 -25 129 -103 143 -103 7 0 39 34 72 75 32 42 72 90 87 108 16 17 35
42 43 54 30 43 150 130 239 173 105 50 125 58 145 59 8 1 54 6 102 13 59 7
112 8 167 2 95 -11 116 -4 106 34 -4 15 -12 34 -19 42 -7 8 -26 38 -41 67 -17
33 -38 56 -56 63 -28 12 -133 19 -199 13z"/>
<path d="M1661 2973 c-30 -2 -62 -10 -72 -17 -23 -15 -69 -82 -69 -99 0 -7 -9
-27 -20 -45 -39 -64 -21 -78 78 -61 215 38 512 -69 678 -243 64 -67 140 -166
148 -194 4 -12 16 -30 27 -40 21 -19 22 -18 100 63 l78 82 -16 33 c-9 18 -20
35 -23 38 -4 3 -15 21 -25 40 -19 37 -160 181 -235 241 -51 41 -231 139 -254
139 -9 0 -16 4 -16 8 0 25 -265 63 -379 55z"/>
<path d="M3568 2371 c-134 -85 -107 -287 43 -329 39 -10 123 -2 156 16 62 34
98 140 74 215 -38 116 -170 163 -273 98z"/>
<path d="M3908 2364 c-5 -4 -8 -49 -8 -100 0 -75 3 -93 16 -98 9 -3 122 -6
253 -6 253 0 312 -8 376 -53 34 -24 65 -56 65 -68 0 -16 -43 -18 -350 -17
-173 1 -325 -2 -337 -6 -23 -7 -23 -10 -23 -185 0 -124 4 -181 12 -189 18 -18
993 -17 1028 1 30 15 36 64 21 172 -10 74 -48 198 -63 203 -4 2 -8 11 -8 20 0
18 -69 122 -82 122 -4 0 -8 6 -8 13 0 7 -8 19 -18 27 -76 64 -114 89 -157 109
-27 12 -63 29 -80 39 -26 14 -75 17 -330 20 -165 2 -303 0 -307 -4z"/>
<path d="M2902 2344 c-110 -16 -246 -78 -319 -147 -110 -102 -180 -236 -190
-363 -3 -46 -10 -84 -14 -84 -5 0 -9 -22 -9 -49 0 -86 -36 -81 540 -81 449 0
510 2 524 16 13 13 16 44 16 185 l0 169 -26 10 c-14 6 -165 10 -355 10 -357 0
-351 -1 -308 53 51 66 165 87 472 87 l197 0 0 105 0 105 -217 -1 c-123 -1
-258 -7 -311 -15z"/>
<path d="M3614 1788 c-59 -81 -84 -118 -84 -125 0 -5 -59 -84 -70 -93 -4 -3
-15 -20 -26 -38 l-19 -34 23 -18 c12 -10 40 -21 61 -25 51 -8 95 -42 132 -100
19 -30 35 -45 46 -43 10 2 33 26 52 55 40 58 89 87 164 98 40 6 47 10 47 30 0
20 -37 73 -84 120 -9 9 -16 20 -16 25 0 5 -6 15 -14 23 -8 8 -27 34 -43 58
-50 79 -87 119 -110 119 -14 0 -34 -17 -59 -52z"/>
</g>
</svg>
