<?xml version="1.0" standalone="no"?>
<!DOCTYPE svg PUBLIC "-//W3C//DTD SVG 20010904//EN"
 "http://www.w3.org/TR/2001/REC-SVG-20010904/DTD/svg10.dtd">
<svg version="1.0" xmlns="http://www.w3.org/2000/svg"
 width="200.000000pt" height="200.000000pt" viewBox="0 0 200.000000 200.000000"
 preserveAspectRatio="xMidYMid meet">

<g transform="translate(0.000000,200.000000) scale(0.100000,-0.100000)"
fill="#000000" stroke="none">
<path d="M740 1739 c-79 -32 -122 -131 -91 -212 25 -66 112 -105 188 -85 76
19 134 105 118 177 -21 95 -127 155 -215 120z m110 -25 c38 -23 60 -74 60
-139 0 -46 -5 -60 -27 -85 -77 -86 -203 -18 -203 110 0 101 89 161 170 114z"/>
<path d="M292 1733 c10 -2 40 -44 68 -92 40 -71 50 -97 50 -135 0 -39 -4 -48
-22 -56 -18 -7 -9 -9 37 -9 45 0 56 2 43 10 -14 7 -18 23 -18 61 0 42 8 66 45
134 25 45 53 85 63 87 9 3 -5 5 -33 5 -27 0 -42 -2 -32 -5 9 -2 17 -8 17 -11
1 -12 -65 -132 -72 -132 -8 0 -68 110 -68 126 0 7 6 15 13 17 6 3 -15 5 -48 5
-33 0 -52 -2 -43 -5z"/>
<path d="M1073 1733 c15 -4 17 -19 17 -138 0 -117 -2 -135 -17 -144 -14 -8 -3
-10 42 -10 33 0 53 3 45 6 -24 9 -30 25 -30 81 0 46 2 52 20 52 14 0 30 -15
48 -46 49 -84 60 -94 100 -93 35 1 35 1 12 10 -16 6 -40 33 -62 71 -33 56 -35
64 -20 72 46 24 55 76 21 120 -19 25 -25 26 -107 25 -48 -1 -79 -3 -69 -6z
m132 -28 c27 -26 31 -54 15 -86 -8 -14 -21 -19 -50 -19 l-40 0 0 58 c0 32 3
62 7 65 14 14 45 6 68 -18z"/>
<path d="M1443 1729 c15 -9 17 -27 17 -136 0 -108 -2 -128 -17 -139 -16 -12
-10 -13 42 -13 50 0 56 2 38 11 -20 9 -23 19 -23 64 0 29 5 56 11 60 13 7 68
-43 105 -98 24 -34 31 -38 68 -38 40 1 40 1 17 14 -14 8 -53 47 -88 87 l-63
73 52 54 c29 30 62 58 73 62 14 6 4 9 -35 9 -30 -1 -49 -3 -42 -6 6 -2 12 -9
12 -15 0 -11 -87 -110 -102 -116 -5 -2 -8 24 -8 57 0 55 3 63 23 71 17 7 8 9
-38 9 -45 0 -56 -2 -42 -10z"/>
<path d="M450 795 l0 -545 550 0 550 0 0 182 0 182 -25 -50 c-33 -66 -85 -118
-153 -151 -49 -24 -69 -28 -147 -28 -106 0 -155 13 -222 58 -49 34 -103 111
-125 177 -7 22 -13 162 -15 378 l-5 342 -204 0 -204 0 0 -545z"/>
<path d="M1090 1036 c0 -276 2 -308 19 -348 31 -73 93 -97 165 -63 63 30 66
49 66 400 l0 315 -125 0 -125 0 0 -304z"/>
</g>
</svg>
