<?xml version="1.0" standalone="no"?>
<!DOCTYPE svg PUBLIC "-//W3C//DTD SVG 20010904//EN"
 "http://www.w3.org/TR/2001/REC-SVG-20010904/DTD/svg10.dtd">
<svg version="1.0" xmlns="http://www.w3.org/2000/svg"
 width="248.000000pt" height="208.000000pt" viewBox="0 0 248.000000 208.000000"
 preserveAspectRatio="xMidYMid meet">

<g transform="translate(0.000000,208.000000) scale(0.100000,-0.100000)"
fill="#000000" stroke="none">
<path d="M1192 1668 c-143 -139 -257 -256 -255 -260 2 -5 88 -8 191 -8 l187 0
265 259 265 260 -197 0 -198 1 -258 -252z"/>
<path d="M1740 1155 l255 -255 200 1 200 0 -260 255 -259 254 -196 0 -195 0
255 -255z"/>
<path d="M727 923 c-4 -3 -7 -52 -7 -108 0 -84 3 -105 18 -118 14 -13 52 -15
236 -16 150 0 224 3 233 11 10 8 17 8 25 0 16 -16 61 -15 76 0 9 9 15 9 24 0
18 -18 56 -14 79 9 28 28 24 104 -6 104 -16 0 -21 -8 -23 -35 -2 -19 -7 -39
-12 -44 -16 -16 -40 15 -40 50 0 27 -4 34 -20 34 -16 0 -20 -7 -20 -34 0 -41
-23 -65 -45 -46 -8 7 -15 28 -15 46 0 27 -4 34 -19 34 -16 0 -20 -8 -23 -42
l-3 -43 -85 0 -85 0 -3 38 c-3 29 -7 37 -23 37 -14 0 -19 -7 -19 -29 0 -36
-22 -55 -55 -47 -21 5 -25 12 -25 41 0 28 -4 35 -19 35 -16 0 -20 -8 -23 -37
-3 -41 -19 -50 -64 -39 -23 6 -24 9 -24 106 0 77 -3 100 -13 100 -8 0 -17 -3
-20 -7z"/>
<path d="M836 884 c-17 -16 -12 -40 9 -48 19 -7 46 20 39 39 -8 21 -32 26 -48
9z"/>
<path d="M613 830 c-68 -27 -50 -150 22 -150 14 0 25 -6 25 -13 0 -23 -23 -37
-60 -37 -43 0 -50 -5 -43 -31 4 -13 14 -19 34 -19 82 0 122 51 117 152 -4 70
-15 91 -53 101 -11 3 -30 2 -42 -3z m47 -76 c0 -28 -4 -35 -16 -32 -40 8 -44
68 -4 68 16 0 20 -6 20 -36z"/>
<path d="M242 755 c9 -73 14 -75 152 -75 144 0 156 5 163 73 5 45 5 47 -21 47
-24 0 -26 -3 -26 -40 l0 -41 -107 3 -108 3 -3 38 c-3 32 -6 37 -29 37 -24 0
-25 -2 -21 -45z"/>
<path d="M366 624 c-9 -22 17 -49 39 -40 10 3 15 15 13 28 -4 29 -42 37 -52
12z"/>
<path d="M917 626 c-6 -15 11 -36 29 -36 14 0 23 20 17 38 -6 16 -40 15 -46
-2z"/>
<path d="M984 625 c-4 -9 -2 -21 4 -27 15 -15 44 -1 40 19 -4 23 -36 29 -44 8z"/>
<path d="M653 543 c-20 -7 -15 -34 9 -60 l21 -23 -26 0 c-17 0 -27 5 -27 15 0
8 -4 15 -10 15 -5 0 -10 -13 -10 -30 0 -20 -5 -30 -15 -30 -8 0 -15 -4 -15
-10 0 -15 21 -12 41 6 13 12 42 17 101 20 46 1 86 3 91 3 10 1 9 41 -2 41 -5
0 -12 -8 -14 -17 -4 -17 -5 -17 -6 0 -1 20 -17 23 -25 5 -5 -10 -7 -10 -12 0
-8 17 -24 15 -24 -3 0 -22 -13 -18 -41 11 -16 18 -20 28 -11 31 6 3 12 11 12
19 0 14 -14 17 -37 7z"/>
<path d="M326 524 c-9 -23 -8 -24 14 -24 11 0 20 2 20 4 0 12 -13 36 -20 36
-4 0 -11 -7 -14 -16z"/>
<path d="M766 524 c-3 -9 -4 -19 -1 -22 3 -3 5 1 5 9 0 12 2 12 10 -1 5 -8 12
-11 16 -7 4 4 1 14 -8 23 -14 14 -16 14 -22 -2z"/>
<path d="M1366 524 c-3 -9 -4 -19 -1 -22 3 -3 5 1 5 9 0 12 2 12 10 -1 5 -8
12 -11 16 -7 4 4 1 14 -8 23 -14 14 -16 14 -22 -2z"/>
<path d="M483 485 c0 -27 2 -38 4 -22 2 15 2 37 0 50 -2 12 -4 0 -4 -28z"/>
<path d="M870 491 c0 -22 5 -43 10 -46 6 -4 10 12 10 39 0 25 -4 46 -10 46 -5
0 -10 -18 -10 -39z"/>
<path d="M1180 520 c0 -5 5 -10 10 -10 6 0 10 5 10 10 0 6 -4 10 -10 10 -5 0
-10 -4 -10 -10z"/>
<path d="M410 510 c0 -5 5 -10 10 -10 6 0 10 5 10 10 0 6 -4 10 -10 10 -5 0
-10 -4 -10 -10z"/>
<path d="M840 510 c0 -5 5 -10 10 -10 6 0 10 5 10 10 0 6 -4 10 -10 10 -5 0
-10 -4 -10 -10z"/>
<path d="M530 502 c0 -6 5 -14 10 -17 19 -12 10 -25 -17 -25 -20 0 -24 -3 -16
-11 15 -15 63 -3 63 15 0 7 -9 21 -20 31 -11 10 -20 13 -20 7z"/>
<path d="M934 485 c16 -25 16 -25 -11 -25 -20 0 -24 -3 -16 -11 15 -15 63 -3
63 15 0 14 -31 46 -44 46 -5 0 -1 -11 8 -25z"/>
<path d="M1163 480 c-6 -23 -43 -27 -43 -5 0 8 -5 15 -11 15 -6 0 -9 -10 -7
-22 3 -20 9 -23 58 -25 76 -3 100 3 100 27 0 11 -4 20 -10 20 -5 0 -10 -7 -10
-15 0 -22 -27 -18 -33 5 -3 11 -13 20 -22 20 -9 0 -19 -9 -22 -20z"/>
<path d="M296 459 c-5 -25 -10 -30 -28 -27 -15 2 -24 11 -26 26 -4 29 -22 29
-22 -1 0 -48 49 -63 90 -27 17 15 32 18 62 14 42 -5 68 8 68 32 0 8 -4 14 -10
14 -5 0 -10 -7 -10 -15 0 -8 -7 -15 -15 -15 -9 0 -18 7 -21 15 -8 20 -21 19
-27 -2 -4 -17 -5 -17 -6 0 0 9 -5 17 -11 17 -5 0 -10 -8 -10 -17 -1 -17 -1
-17 -14 0 -12 16 -14 15 -20 -14z"/>
<path d="M840 465 c0 -13 -8 -28 -17 -34 -10 -5 -14 -13 -10 -17 4 -5 16 -3
25 2 19 12 29 74 13 74 -6 0 -11 -11 -11 -25z"/>
<path d="M990 465 c0 -13 -8 -28 -17 -34 -10 -5 -15 -13 -11 -16 7 -7 19 -4
48 14 8 5 23 12 33 15 18 6 24 46 7 46 -5 0 -10 -7 -10 -15 0 -8 -7 -15 -15
-15 -8 0 -15 7 -15 15 0 8 -4 15 -10 15 -5 0 -10 -11 -10 -25z"/>
<path d="M1280 460 c0 -16 -4 -30 -10 -30 -5 0 -10 -4 -10 -10 0 -15 17 -12
35 7 10 10 36 18 64 19 25 1 49 3 54 3 10 1 9 41 -2 41 -5 0 -12 -8 -14 -17
-4 -17 -5 -17 -6 0 -1 20 -17 23 -25 5 -5 -10 -7 -10 -12 0 -8 17 -24 15 -24
-3 0 -8 -7 -15 -15 -15 -8 0 -15 7 -15 15 0 8 -4 15 -10 15 -5 0 -10 -13 -10
-30z"/>
<path d="M1010 421 c0 -5 6 -14 14 -20 11 -9 15 -8 20 5 9 23 8 24 -14 24 -11
0 -20 -4 -20 -9z"/>
<path d="M1210 422 c0 -4 9 -8 20 -9 11 -1 20 2 20 8 0 5 -9 9 -20 9 -11 0
-20 -4 -20 -8z"/>
</g>
</svg>
